<svg width="26" height="19" viewBox="0 0 26 19" fill="none" xmlns="http://www.w3.org/2000/svg">
<path fill-rule="evenodd" clip-rule="evenodd" d="M13.0001 5C10.3243 5 8.15503 7.01472 8.15503 9.5C8.15503 11.9853 10.3243 14 13.0001 14C15.676 14 17.8452 11.9853 17.8452 9.5C17.8452 7.01472 15.676 5 13.0001 5ZM10.3084 9.5C10.3084 8.1193 11.5136 7 13.0001 7C14.4867 7 15.6919 8.1193 15.6919 9.5C15.6919 10.8807 14.4867 12 13.0001 12C11.5136 12 10.3084 10.8807 10.3084 9.5Z" fill="#002B1E"/>
<path fill-rule="evenodd" clip-rule="evenodd" d="M13 0C8.48795 0 5.25477 2.34327 3.20531 4.5685C2.17573 5.68638 1.41958 6.79981 0.920647 7.6325C0.670521 8.05 0.483284 8.3998 0.357203 8.6484C0.294123 8.7727 0.246231 8.872 0.213322 8.9419C0.196864 8.9769 0.184142 9.0046 0.17513 9.0245L0.164389 9.0483L0.161098 9.0557L0.15997 9.0583L0.159536 9.0593L0 9.4233L0.149434 9.791L0.14985 9.792L0.150928 9.7947L0.154062 9.8023L0.164263 9.8266C0.172816 9.8469 0.184889 9.8751 0.200525 9.9107C0.231792 9.982 0.277355 10.083 0.337584 10.2095C0.457961 10.4623 0.637397 10.818 0.878948 11.2424C1.36074 12.0889 2.0966 13.2209 3.1137 14.3577C5.14179 16.6243 8.37773 19 13 19C17.6223 19 20.8582 16.6243 22.8863 14.3577C23.9034 13.2209 24.6393 12.0889 25.1211 11.2424C25.3626 10.818 25.5421 10.4623 25.6625 10.2095C25.7226 10.083 25.7682 9.982 25.7995 9.9107C25.8151 9.8751 25.8272 9.8469 25.8357 9.8266L25.8459 9.8023L25.849 9.7947L25.8501 9.792L25.8506 9.791L26 9.4233L25.8404 9.0593L25.8389 9.0557L25.8356 9.0483L25.8248 9.0245C25.8159 9.0046 25.8032 8.9769 25.7867 8.9419C25.7538 8.872 25.7058 8.7727 25.6428 8.6484C25.5167 8.3998 25.3294 8.05 25.0793 7.6325C24.5804 6.79981 23.8242 5.68638 22.7947 4.5685C20.7452 2.34327 17.512 0 13 0ZM24.8435 9.4371C25.8509 9.7902 25.8506 9.791 25.8506 9.791L24.8435 9.4371ZM25.8404 9.0593C25.8404 9.0593 25.8408 9.0601 24.8435 9.4371L25.8404 9.0593ZM1.15643 9.4371C0.159188 9.0601 0.159536 9.0593 0.159536 9.0593L1.15643 9.4371ZM0.149434 9.791C0.149434 9.791 0.149098 9.7902 1.15643 9.4371L0.149434 9.791ZM2.7827 10.3077C2.58342 9.9576 2.43345 9.6632 2.33089 9.4504C2.43869 9.2404 2.59551 8.9501 2.80228 8.605C3.25122 7.8558 3.9286 6.85995 4.84167 5.86857C6.67752 3.87527 9.36612 2 13 2C16.6339 2 19.3225 3.87527 21.1583 5.86857C22.0714 6.85995 22.7487 7.8558 23.1977 8.605C23.4045 8.9501 23.5613 9.2404 23.6691 9.4504C23.5666 9.6632 23.4166 9.9576 23.2173 10.3077C22.7852 11.0667 22.1284 12.0754 21.2302 13.0794C19.4274 15.0942 16.7416 17 13 17C9.25843 17 6.57259 15.0942 4.76986 13.0794C3.87153 12.0754 3.21472 11.0667 2.7827 10.3077Z" fill="#002B1E"/>
</svg>
