<svg width="27" height="24" viewBox="0 0 27 24" fill="none" xmlns="http://www.w3.org/2000/svg">
<path fill-rule="evenodd" clip-rule="evenodd" d="M26.5306 0.292893C26.951 0.683417 26.951 1.31658 26.5306 1.70711L21.4507 6.4252C21.4415 6.43399 21.4322 6.4426 21.4228 6.45102L7.92689 18.9857C7.91777 18.9945 7.90851 19.0031 7.89912 19.0115L2.84339 23.7071C2.42292 24.0976 1.7412 24.0976 1.32073 23.7071C0.900253 23.3166 0.900253 22.6834 1.32073 22.2929L5.56444 18.3514C4.14543 17.1406 3.09605 15.7855 2.37622 14.6799C1.93956 14.0092 1.61811 13.421 1.4044 12.9971C1.29743 12.785 1.2171 12.6133 1.16253 12.4922C1.13523 12.4317 1.11435 12.3838 1.09978 12.3497L1.08262 12.3091L1.07756 12.2969L1.0759 12.2928L1.07529 12.2913C1.07529 12.2913 1.07482 12.2902 2.08215 11.9371L1.08526 11.5593L1.08569 11.5583L1.08682 11.5557L1.09011 11.5483L1.10085 11.5245C1.10987 11.5046 1.12259 11.4769 1.13905 11.4419C1.17195 11.372 1.21985 11.2727 1.28293 11.1484C1.40901 10.8998 1.59624 10.55 1.84637 10.1325C2.3453 9.29981 3.10145 8.18638 4.13103 7.0685C6.18049 4.84327 9.41368 2.5 13.9257 2.5C16.5664 2.5 18.7765 3.30553 20.5634 4.42081L25.0078 0.292893C25.4284 -0.097631 26.11 -0.097631 26.5306 0.292893ZM11.4191 12.9138L14.9094 9.67199C14.6049 9.56087 14.2731 9.5 13.9257 9.5C12.439 9.5 11.2339 10.6193 11.2339 12C11.2339 12.3227 11.2994 12.6308 11.4191 12.9138ZM16.505 8.19018C15.7582 7.75332 14.8733 7.5 13.9257 7.5C11.2498 7.5 9.08054 9.51472 9.08054 12C9.08054 12.8801 9.35329 13.702 9.82364 14.3956L7.08869 16.9358C5.83308 15.8793 4.88332 14.6655 4.21888 13.645C3.82786 13.0444 3.5416 12.5199 3.35454 12.1489C3.31809 12.0766 3.28547 12.0103 3.25661 11.9504C3.36442 11.7404 3.52123 11.4501 3.72801 11.105C4.17694 10.3558 4.85432 9.35995 5.7674 8.36856C7.60325 6.37527 10.2918 4.5 13.9257 4.5C15.8955 4.5 17.5809 5.04849 19.006 5.8672L16.505 8.19018Z" fill="#002B1E"/>
<path d="M1.08532 11.5593L0.925781 11.9233L1.07488 12.2902L2.08221 11.9371C1.08497 11.5601 1.08532 11.5593 1.08532 11.5593Z" fill="#002B1E"/>
<path d="M23.1926 7.9968C23.6746 7.67333 24.3477 7.77398 24.696 8.22162C25.3896 9.11315 25.9024 9.93795 26.2431 10.542C26.4137 10.8445 26.5419 11.0931 26.6287 11.2688C26.672 11.3567 26.7052 11.4264 26.7281 11.4757C26.7395 11.5004 26.7485 11.5199 26.7548 11.5341L26.7625 11.5512L26.765 11.5567L26.7658 11.5586L26.7663 11.5598L25.7691 11.9371L26.7762 12.291L26.7757 12.292L26.7747 12.2947L26.7715 12.3023L26.7613 12.3266C26.7528 12.3469 26.7407 12.3751 26.7251 12.4107C26.6938 12.482 26.6482 12.583 26.5881 12.7095C26.4677 12.9623 26.2882 13.318 26.0467 13.7424C25.5649 14.5889 24.829 15.7209 23.8119 16.8577C21.7838 19.1243 18.5479 21.5 13.9256 21.5C12.9859 21.5 12.0985 21.4013 11.2635 21.2228C10.684 21.099 10.3223 20.5623 10.4556 20.0241C10.5889 19.4859 11.1668 19.1499 11.7463 19.2737C12.4243 19.4186 13.1498 19.5 13.9256 19.5C17.6672 19.5 20.353 17.5942 22.1558 15.5794C23.054 14.5754 23.7108 13.5667 24.1429 12.8077C24.3422 12.4576 24.4922 12.1632 24.5947 11.9504C24.5275 11.8195 24.4413 11.6573 24.3355 11.4699C24.0319 10.9316 23.5718 10.1915 22.9506 9.39303C22.6023 8.94539 22.7107 8.32028 23.1926 7.9968Z" fill="#002B1E"/>
<path d="M26.7763 12.291C26.7763 12.291 26.7766 12.2902 25.7693 11.9371C26.7665 11.5601 26.7664 11.5598 26.7664 11.5598L26.9258 11.9233L26.7763 12.291Z" fill="#002B1E"/>
</svg>
