<svg width="20" height="20" viewBox="0 0 20 20" fill="none" xmlns="http://www.w3.org/2000/svg">
<path d="M18.9991 10.0001H14.999M16.999 12.0002V8.00012" stroke="#002B1E" stroke-width="2" stroke-linecap="round"/>
<path d="M1 17.1115C1 14.6984 2.69733 12.643 5.00407 12.2627L5.21185 12.2284C7.05897 11.9239 8.94116 11.9239 10.7883 12.2284L10.9961 12.2627C13.3028 12.643 15.0001 14.6984 15.0001 17.1115C15.0001 18.1545 14.1816 19 13.172 19H2.82814C1.81849 19 1 18.1545 1 17.1115Z" stroke="#002B1E" stroke-width="2"/>
<path d="M12.0838 4.93753C12.0838 7.11216 10.2556 8.87506 8.00033 8.87506C5.74518 8.87506 3.91699 7.11216 3.91699 4.93753C3.91699 2.76289 5.74518 1 8.00033 1C10.2556 1 12.0838 2.76289 12.0838 4.93753Z" stroke="#002B1E" stroke-width="2"/>
</svg>
